<svg xmlns="http://www.w3.org/2000/svg" xmlns:xlink="http://www.w3.org/1999/xlink" xml:space="preserve" version="1.1" style="shape-rendering:geometricPrecision;text-rendering:geometricPrecision;image-rendering:optimizeQuality;" viewBox="0 0 512 640" x="0px" y="0px" fill-rule="evenodd" clip-rule="evenodd"><defs><style type="text/css">
   
    .fil0 {fill:black}
   
  </style></defs><g><g><g><g><path class="fil0" d="M348 158l-182 0c-4,0 -6,-3 -6,-6l0 -146c0,-3 2,-6 6,-6l45 0c2,0 4,1 5,2l21 27 111 0c3,0 6,3 6,6l0 117c0,3 -3,6 -6,6zm-176 -12l170 0 0 -105 -108 0c-2,0 -4,-1 -5,-2l-20 -27 -37 0 0 134z"/></g><g><path class="fil0" d="M348 74l-182 0c-4,0 -6,-2 -6,-6 0,-3 2,-6 6,-6l182 0c3,0 6,3 6,6 0,4 -3,6 -6,6z"/></g><g><path class="fil0" d="M257 187c-4,0 -6,-3 -6,-6l0 -29c0,-3 2,-6 6,-6 3,0 6,3 6,6l0 29c0,3 -3,6 -6,6z"/></g><g><path class="fil0" d="M410 248c-4,0 -6,-3 -6,-6l0 -40 -294 0 0 40c0,3 -3,6 -6,6 -3,0 -6,-3 -6,-6l0 -46c0,-4 3,-6 6,-6l306 0c3,0 6,2 6,6l0 46c0,3 -3,6 -6,6z"/></g><g><path class="fil0" d="M257 419c-4,0 -6,-3 -6,-6l0 -232c0,-3 2,-6 6,-6 3,0 6,3 6,6l0 232c0,3 -3,6 -6,6z"/></g><g><path class="fil0" d="M176 341l-146 0c-3,0 -6,-2 -6,-6l0 -116c0,-4 3,-6 6,-6l37 0c2,0 3,1 4,2l16 21 89 0c3,0 6,3 6,6l0 93c0,4 -3,6 -6,6zm-140 -12l134 0 0 -81 -86 0c-1,0 -3,-1 -4,-2l-16 -21 -28 0 0 104z"/></g><g><path class="fil0" d="M176 275l-146 0c-3,0 -6,-3 -6,-6 0,-4 3,-6 6,-6l146 0c3,0 6,2 6,6 0,3 -3,6 -6,6z"/></g><g><path class="fil0" d="M482 341l-146 0c-3,0 -6,-2 -6,-6l0 -116c0,-4 3,-6 6,-6l37 0c2,0 4,1 5,2l16 21 88 0c3,0 6,3 6,6l0 93c0,4 -3,6 -6,6zm-140 -12l134 0 0 -81 -85 0c-2,0 -4,-1 -5,-2l-16 -21 -28 0 0 104 0 0z"/></g><g><path class="fil0" d="M482 275l-146 0c-3,0 -6,-3 -6,-6 0,-4 3,-6 6,-6l146 0c3,0 6,2 6,6 0,3 -3,6 -6,6z"/></g><g><path class="fil0" d="M330 512l-146 0c-3,0 -6,-3 -6,-6l0 -117c0,-3 3,-6 6,-6l37 0c1,0 3,1 4,3l16 21 89 0c3,0 6,2 6,6l0 93c0,3 -3,6 -6,6zm-140 -12l134 0 0 -81 -86 0c-2,0 -3,-1 -4,-3l-16 -21 -28 0 0 105z"/></g><g><path class="fil0" d="M330 445l-146 0c-3,0 -6,-2 -6,-6 0,-3 3,-6 6,-6l146 0c3,0 6,3 6,6 0,4 -3,6 -6,6z"/></g></g></g></g><text x="0" y="527" fill="#000000" font-size="5px" font-weight="bold" font-family="'Helvetica Neue', Helvetica, Arial-Unicode, Arial, Sans-serif">Created by Muhammad Atif</text><text x="0" y="532" fill="#000000" font-size="5px" font-weight="bold" font-family="'Helvetica Neue', Helvetica, Arial-Unicode, Arial, Sans-serif">from the Noun Project</text></svg>